<?xml version="1.0" encoding="UTF-8"?>
<svg xmlns="http://www.w3.org/2000/svg" version="1.1" xmlns:xlink="http://www.w3.org/1999/xlink" viewBox="0 0 400 400">
  <!-- Generator: Adobe Illustrator 29.3.1, SVG Export Plug-In . SVG Version: 2.1.0 Build 151)  -->
  <defs>
    <style>
      .st0 {
        font-size: 14px;
      }

      .st0, .st1 {
        font-family: BradleyHandITC, 'Bradley Hand ITC';
      }

      .st2 {
        fill: #fff;
      }

      .st3 {
        fill: none;
      }

      .st1 {
        font-size: 55px;
      }

      .st1, .st4 {
        stroke: #000;
      }

      .st5 {
        clip-path: url(#clippath);
      }
    </style>
    <clipPath id="clippath">
      <rect class="st3" x="6.69" y="0" width="300" height="400"/>
    </clipPath>
  </defs>
  <g id="Layer_1">
    <rect x="13.38" y="16.07" width="275" height="275"/>
    <g class="st5">
      <path class="st2" d="M-11.34,291.07h61.54c-.07-.84.3-1.77.4-2.63.43-3.67-.56-9.29-1.75-12.8-.75-2.21-1.72-4.02-2.33-6.3-1.21-4.5-2.32-9.13-3.29-13.68-1.14-5.37-.82-10.32-1.69-15.55-.59-3.51-1.84-8.5-2.96-11.86-.25-.74-1.06-1.75-.88-2.57.06-.26.31-.45.38-.7.91-2.94-.31-2.37-2.43-2.97-1.95-.56-3.33-1.74-5.08-2.66l-.16-.45c.51-2.89.96-5.84,1.86-8.62-.05-2.51-.47-5.08.87-7.35.69-1.17,2.01-2.84,2.85-4.02.62-.86,1.73-1.44,1.8-2.52.15-2.07-1.94-2.27-2.54-3.37-.22-.42,0-.55-.08-.86-.03-.14-.5-1.03-.61-1.15-.76-.82-1.46-.06-1.62-.2.8-2.56-1.48-1.88-2.96-2.7.21-.78.5-2.35-.33-2.83-.4-.23-2.77-.68-3.39-.79-.46-.08-.97.05-1.44-.04-.36-.07-1.84-.9-2.05-1.18.07-.58.47-.02.74.07.34.11.83.24,1.18.3.25.04.46.16.44-.17-.04-.73-.93-2.94-1.25-3.74-1.34-3.41-2.16-4.6-5.36-6.49-1.57-.92-2.69-1.44-4.53-.64-.91.4-1.28,1.16-1.97,1.54-.73.4-2.01.66-2.88,1.03-1.79.77-7.23,3.89-8.15,5.45-.74,1.25.05,1.89-1.63,2.68-2.58,1.21-3.42,2.59-4.4,5.29-1.62,4.48-1.31,6.09-.81,10.65.1.93,0,1.96.15,2.95.07.45.61,2.69,1,2.78.34.08.36-.52.6-.54.63,2.28,2.19,4.28,3.41,6.29l.3.17c.35-.1.03-.94.4-.8.6.23,2.29,1.95,3.07,2.45,2.35,1.51,5.03,1.14,7.7.91.58-.05,2.36-.73,2.32.31-.05,1.15-.8,1.46-1.28,2.2-.43.66-.74,1.63-1.12,2.25-1.23,1.98-3.61,3.93-5.02,5.89s-3.07,4.97-4.19,7.13c-1.74,3.36-1.37,5.82-2.65,9.07-.86,2.19-2.07,4.74-3.04,6.93-.42.94-1.21,1.72-1.44,2.73-.64,2.73,1.44,5.48,2.09,8-3.22,10.87-5.43,22.01-7.8,33.1Z"/>
    </g>
    <path class="st2" d="M300,0v291.07h-55.69v-7.4l9.35-.11,1.38-3.97,10.65-1.67h-10.69v-4.12s-10.68,0-10.68,0v-5.76h-4.94s.01-4.12.01-4.12h-5.76s0-6.57,0-6.57h-16.45v-4.12h4.12s0-4.92,0-4.92l4.11.81v-13.15h32.9v-15.62h-21.38l.15-3.15,4.77-.96c.68-2.85-1.12-3.06-3.68-3.29-3.93-.36-8.68.55-12.39.07-1.52-.2-1.08-1.55-1.75-1.69-1.45-.34-6.51.32-6.84-.02v-5.76c.43-.41,10.26-.5,11.78-.84.66-.14.21-1.49,1.74-1.69,5.28-.69,35.38,1.4,36.65.07v-3.29l2.46.82v-5.76h12.33v-.82h-12.33l.06-5.3-2.37-.61-.61-2.37-49.7-.75v-5.77s41.12.83,41.12.83v-16.45h-12.75c-.5,0-.91-2.25-1.81-2.48-1.95-.49-9.28.61-10.06-.08l-.05-2.37h-12.33v-5.76h15.62v-11.51h-12.33v-5.76h-7.41s0-5.76,0-5.76c1.96-.74,4.78.91,6.11.84.22-.01,1.03-2.68,3.69-1.75l.07-2.38,12.33.84v-8.23l4.93.83v-12.33h-15.62v-2.47s3.26-.03,3.26-.03v-7.35l-3.27-.02v-4.93h44.41c.07,0-.23-1.12.17-1.45l3.14-.66-.03-10.22-3.28.82v-2.47h-26.31v-4.11h-13.16v-4.93c-2.01.24-4.35,1.98-5.66-.49l.73-6.92h-14.8v-3.28h13.97v-4.94h39.47l.05-2.37c5.6.82,10.44-2.68,14.5-5.82l13.4-2.49c-1.65-.19-3.62.34-5.18-.03-.57-.13-.22-1.23-1.79-1.65-1.84-.5-4.66-.28-6.37-.86-1.37-.46-6.36-4.64-8.08-5.24-3.02-1.08-5.84.85-7.1-2.07l-35.93-.19-1.09-1.06.58-2.05h-17.26c-.11-1.64,2.2-.38,3.34-1.2.9-.64.35-2.72,1.26-2.97,8.56.95,15.45-3.94,24.18-2.4v-6.58h25.49c-.8-2.2,1.51-2.21,1.7-3.65.48-3.6-.47-8.23-.06-11.98l-1.63.84V0S300,0,300,0Z"/>
    <text class="st1" transform="translate(14.8 341.7)"><tspan x="0" y="0">MEMENTO</tspan></text>
    <text class="st0" transform="translate(33.09 366)"><tspan x="0" y="0">from disconnected </tspan><tspan class="st4" x="110.93" y="0">OBLIVION </tspan><tspan x="178.65" y="0">commute,</tspan><tspan x="13.22" y="16.8">to an engaging </tspan><tspan class="st4" x="108.15" y="16.8">ODYSSEY</tspan><tspan x="173.65" y="16.8" xml:space="preserve"> journey</tspan></text>
  </g>
  <g id="Layer_2">
    <path d="M299,1v398H1V1h298M300,0H0v400h300V0h0Z"/>
  </g>
</svg>