<?xml version="1.0" encoding="UTF-8"?>
<svg id="Layer_8_xA0_Image" xmlns="http://www.w3.org/2000/svg" version="1.1" viewBox="0 0 42.48 41.76">
  <!-- Generator: Adobe Illustrator 29.3.1, SVG Export Plug-In . SVG Version: 2.1.0 Build 151)  -->
  <defs>
    <style>
      .st0 {
        fill: #ff0086;
      }
    </style>
  </defs>
  <path class="st0" d="M23.42,0c2.92.25,9.64,2.5,11.39,4.86,1.56,2.11-.39,4.19-2.81,3.65-1.02-.23-1.43-1.14-2.01-1.45-4.48-2.44-8.73-3.19-13.72-1.71-1.74.52-4.61,1.32-3.56,3.67s3.99-.2,5.69-.43c16.41-2.14,20.89,18.27,7.82,23.75-2.2.92-5.18,1.06-7.56.81-1.78-.19-3.16-1.32-4.85-1.68-.91.23-4.09,4.47-5.24,5.12-2.83,1.61-5.07-2.12-2.66-4.2l4.41-4.38c-.66-2.22-2.53-5.92-1.78-8.32.6-1.91,4.25-2.3,4.71.23.52,2.82.3,5.07,2.97,7.06,9.21,6.86,18.17-7.89,8.74-12.94-5.37-2.87-7.97,1.8-12.58.45-3.75-1.1-5.59-5.08-4.33-8.7.88-2.51,2.54-3.34,4.89-4.3,1.78-.73,3.94-1.33,5.85-1.5h4.62Z"/>
  <path class="st0" d="M42.48,18.86v4c-.77,3.12-1.38,6.04-3.06,8.83-2.38,3.94-6.98,7.57-11.38,9.03l-4.91,1c-1.32-.08-2.73.11-4.04,0-.99-.08-2.83-.39-3.81-.66-1.89-.51-2.84-1.12-2.56-3.22.4-3,4.92-.92,6.84-.73,11.5,1.1,20.44-9.92,17.35-20.89-.49-1.75-2.26-3.68-.52-5.25,1.35-1.21,2.98-.65,3.91.75.72,1.08,2.03,5.78,2.18,7.13Z"/>
  <path class="st0" d="M5.43,12.94c1.01,1.24-.59,4.98-.74,6.67-.06.73-.09,1.53-.05,2.26.12,1.98,2.37,6.08,0,7.13-2.66,1.19-3.74-1.12-4.24-3.22-.63-2.61-.78-11.21,1.37-13.06.81-.7,2.97-.62,3.66.22Z"/>
</svg>