<?xml version="1.0" encoding="UTF-8"?>
<svg xmlns="http://www.w3.org/2000/svg" viewBox="0 0 300 400">
  <defs>
    <style>
      .cls-1 {
        fill: #fff;
      }
    </style>
  </defs>
  <g id="Layer_2">
    <g>
      <path d="M.5,399.5V.5h299v399H.5ZM12.88,291.57h276V15.57H12.88v276Z"/>
      <path d="M299,1v398H1V1h298M12.38,292.07h277V15.07H12.38v277M300,0H0v400h300V0h0ZM13.38,291.07V16.07h275v275H13.38Z"/>
    </g>
    <polygon class="cls-1" points="184.6 66.07 184.6 91.07 219.19 91.07 219.19 116.07 150 116.07 150 141.07 184.6 141.07 184.6 166.07 253.79 166.07 253.79 191.07 219.19 191.07 219.19 216.07 184.6 216.07 184.6 241.07 219.19 241.07 219.19 266.07 150 266.07 150 291.07 13.38 291.07 13.38 16.07 253.79 16.07 253.79 41.07 219.19 41.07 219.19 66.07 184.6 66.07"/>
  </g>
  <g id="Layer_4">
    <polygon points="288.38 16.07 288.38 291.07 267.51 291.07 150 291.93 150 266.07 219.19 266.07 219.19 241.07 184.6 241.07 184.6 216.07 219.19 216.07 219.19 191.07 253.79 191.07 253.79 166.07 184.6 166.07 184.6 141.07 150 141.07 150 116.07 219.19 116.07 219.19 91.07 184.6 91.07 184.6 66.07 219.19 66.07 219.19 41.07 253.79 41.07 253.79 16.07 288.38 16.07"/>
  </g>
</svg>