<?xml version="1.0" encoding="UTF-8"?>
<svg id="Layer_4" xmlns="http://www.w3.org/2000/svg" viewBox="0 0 301 401">
  <defs>
    <style>
      .cls-1 {
        fill: #fff;
      }
    </style>
  </defs>
  <path class="cls-1" d="M1,400V1h299v399H1ZM13.38,292.07h137.62v-25h69.19v-26.7h-34.59v-23.3h34.59v-25h34.6v-26.47h-69.19v-24.92h-34.6v-23.61h69.19v-26.23h-34.59v-23.77h34.59v-25h34.6v-26H13.38v276Z"/>
  <path d="M299.5,1.5v398H1.5V1.5h298M12.88,292.57h138.62v-25h69.19v-27.7h-34.59v-22.3h34.59v-25h34.6v-27.47h-69.19v-24.92h-34.6v-22.61h69.19v-27.23h-34.59v-22.77h34.59v-25h34.6V15.57H12.88v277M300.5.5H.5v400h300V.5h0ZM13.88,291.57V16.57h240.41v25h-34.6v25h-34.59v24.77h34.59v25.23h-69.19v24.61h34.6v24.92h69.19v25.47h-34.6v25h-34.59v24.3h34.59v25.7h-69.19v25H13.88Z"/>
</svg>